<svg xmlns="http://www.w3.org/2000/svg" viewBox="0 0 64 64" id="cashier"><path d="M61 52h-2V19c0-1.654-1.346-3-3-3h-7v-4h6a1 1 0 0 0 1-1V1a1 1 0 0 0-1-1H35a1 1 0 0 0-1 1v10a1 1 0 0 0 1 1h6v4H29V9c0-1.654-1.346-3-3-3H12c-1.654 0-3 1.346-3 3v2a1 1 0 0 0 1 1h3v4H8c-1.654 0-3 1.346-3 3v33H3c-1.654 0-3 1.346-3 3v6c0 1.654 1.346 3 3 3h58c1.654 0 3-1.346 3-3v-6c0-1.654-1.346-3-3-3ZM36 2h18v8H36V2Zm7 10h4v4h-4v-4ZM29 31h2v2h-2v-2Zm-18 2v-2h2v2h-2Zm4-22V9c0-.352-.072-.686-.184-1H26c.551 0 1 .449 1 1v24H15V11Zm-4-2c0-.551.449-1 1-1s1 .449 1 1v1h-2V9ZM7 19c0-.551.449-1 1-1h5v11h-3a1 1 0 0 0-1 1v4a1 1 0 0 0 1 1h22a1 1 0 0 0 1-1v-4a1 1 0 0 0-1-1h-3V18h27a1 1 0 0 1 1 1v33H7V19Zm6.18 43 .528-3.164a.997.997 0 0 1 .986-.836h34.612c.49 0 .906.351.986.836L50.819 62H13.181ZM62 61a1 1 0 0 1-1 1h-8.153l-.582-3.493A2.99 2.99 0 0 0 49.305 56h-34.61a2.99 2.99 0 0 0-2.96 2.507L11.153 62H3c-.551 0-1-.449-1-1v-6c0-.551.449-1 1-1h58a1 1 0 0 1 1 1v6Z"></path><path d="M53 21H37a1 1 0 0 0-1 1v8a1 1 0 0 0 1 1h16a1 1 0 0 0 1-1v-8a1 1 0 0 0-1-1zm-1 8H38v-6h14v6zm-6 6h-2a1 1 0 1 0 0 2h2a1 1 0 1 0 0-2zm6 0h-2a1 1 0 1 0 0 2h2a1 1 0 1 0 0-2zm-12 0h-2a1 1 0 1 0 0 2h2a1 1 0 1 0 0-2zm6 4h-2a1 1 0 1 0 0 2h2a1 1 0 1 0 0-2zm6 0h-2a1 1 0 1 0 0 2h2a1 1 0 1 0 0-2zm-12 0h-2a1 1 0 1 0 0 2h2a1 1 0 1 0 0-2zm6 4h-2a1 1 0 1 0 0 2h2a1 1 0 1 0 0-2zm6 0h-2a1 1 0 1 0 0 2h2a1 1 0 1 0 0-2zm-12 0h-2a1 1 0 1 0 0 2h2a1 1 0 1 0 0-2zm6 4h-2a1 1 0 1 0 0 2h2a1 1 0 1 0 0-2zm6 0h-2a1 1 0 1 0 0 2h2a1 1 0 1 0 0-2zm-12 0h-2a1 1 0 1 0 0 2h2a1 1 0 1 0 0-2zm-18-8h-2a1 1 0 0 0 0 2h2a1 1 0 0 0 0-2zm6 0h-2a1 1 0 0 0 0 2h2a1 1 0 0 0 0-2zm-12 0h-2a1 1 0 0 0 0 2h2a1 1 0 0 0 0-2zm6 4h-2a1 1 0 0 0 0 2h2a1 1 0 0 0 0-2zm6 0h-2a1 1 0 0 0 0 2h2a1 1 0 0 0 0-2zm-12 0h-2a1 1 0 0 0 0 2h2a1 1 0 0 0 0-2zm6 4h-2a1 1 0 0 0 0 2h2a1 1 0 0 0 0-2zm6 0h-2a1 1 0 0 0 0 2h2a1 1 0 0 0 0-2zm-12 0h-2a1 1 0 0 0 0 2h2a1 1 0 0 0 0-2zm8-29h-6a1 1 0 0 0 0 2h6a1 1 0 0 0 0-2zm0-4h-6a1 1 0 0 0 0 2h6a1 1 0 0 0 0-2zm0 8h-6a1 1 0 0 0 0 2h6a1 1 0 0 0 0-2zm0 4h-6a1 1 0 0 0 0 2h6a1 1 0 0 0 0-2z" stroke="#212121" stroke-width="2"></path></svg>