<svg xmlns="http://www.w3.org/2000/svg" viewBox="0 0 48 48" id="business-report"><path d="M10,44H32.06v2H10a3,3,0,0,1-3-3V7a3,3,0,0,1,3-3h6V6H10A1,1,0,0,0,9,7V43A1,1,0,0,0,10,44ZM39,7V18h2V7a3,3,0,0,0-3-3H32V6h6A1,1,0,0,1,39,7ZM16,10V8H12a1,1,0,0,0-1,1V41a1,1,0,0,0,1,1H32V40H13V10Zm19,7.93h2V9a1,1,0,0,0-1-1H32v2h3ZM17,11V3a1,1,0,0,1,1-1H30a1,1,0,0,1,1,1v8a1,1,0,0,1-1,1H18A1,1,0,0,1,17,11Zm2-1H29V4H19Zm6,14h6V22H25Zm6-8H25v2h6Zm0,12H17v2H31Zm0,6H17v2H31ZM22,8h4V6H22ZM42,23V43a1,1,0,0,1-.44.83l-2.93,2a1,1,0,0,1-.56.17,1,1,0,0,1-.55-.16l-3.07-2A1,1,0,0,1,34,43V23a3,3,0,0,1,3-3h2A3,3,0,0,1,42,23Zm-6,3h4V23a1,1,0,0,0-1-1H37a1,1,0,0,0-1,1Zm4,2H36V42.46l2.06,1.34L40,42.47ZM19,25h2V24h1a1,1,0,0,0,1-1V20a1,1,0,0,0-1-1H19V18h4V16H21V15H19v1H18a1,1,0,0,0-1,1v3a1,1,0,0,0,1,1h3v1H17v2h2Z" data-name="68 Business Report, Business Data, Clipboard, Financial, Financial Data, Notes"></path></svg>