<svg xmlns="http://www.w3.org/2000/svg" viewBox="0 0 52 52" id="repair-tool"><g fill="none" stroke="#000" stroke-linecap="round" stroke-linejoin="round" stroke-miterlimit="10" stroke-width="2"><path d="M24.751 39.625a9.552 9.552 0 0 1-.917 2.23l1.39 3.416-1.81 1.797-3.404-1.389a9.679 9.679 0 0 1-2.243.93L16.339 50H13.79l-1.428-3.39a9.583 9.583 0 0 1-2.23-.93l-3.403 1.388-1.81-1.797 1.39-3.416a9.552 9.552 0 0 1-.919-2.23L2 38.197v-2.549l3.39-1.427c.217-.79.523-1.53.918-2.231l-1.39-3.403 1.81-1.81 3.417 1.39c.688-.383 1.44-.702 2.217-.919l1.44-3.403 2.55.013 1.427 3.39c.79.217 1.53.523 2.218.918l3.416-1.39 1.81 1.81-1.39 3.404c.396.701.702 1.44.918 2.23l3.39 1.428v2.55l-3.39 1.427z"></path><circle cx="15.071" cy="36.927" r="4.142"></circle></g><g fill="none" stroke="#000" stroke-linecap="round" stroke-linejoin="round" stroke-miterlimit="10" stroke-width="2"><path d="M50 12.215c0 6.597-5.338 11.935-11.935 11.935S26.12 18.812 26.12 12.215c0-4.326 2.304-8.114 5.743-10.204v7.743l6.203 5.338 6.192-5.338V2A11.947 11.947 0 0 1 50 12.215z"></path><path d="M42.37 23.352V45.69a4.31 4.31 0 1 1-8.62 0V23.34"></path></g><g fill="none" stroke="#000" stroke-linecap="round" stroke-linejoin="round" stroke-miterlimit="10" stroke-width="2"><path d="M24.751 39.625a9.552 9.552 0 0 1-.917 2.23l1.39 3.416-1.81 1.797-3.404-1.389a9.679 9.679 0 0 1-2.243.93L16.339 50H13.79l-1.428-3.39a9.583 9.583 0 0 1-2.23-.93l-3.403 1.388-1.81-1.797 1.39-3.416a9.552 9.552 0 0 1-.919-2.23L2 38.197v-2.549l3.39-1.427c.217-.79.523-1.53.918-2.231l-1.39-3.403 1.81-1.81 3.417 1.39c.688-.383 1.44-.702 2.217-.919l1.44-3.403 2.55.013 1.427 3.39c.79.217 1.53.523 2.218.918l3.416-1.39 1.81 1.81-1.39 3.404c.396.701.702 1.44.918 2.23l3.39 1.428v2.55l-3.39 1.427z"></path><circle cx="15.071" cy="36.927" r="4.142"></circle></g><g fill="none" stroke="#000" stroke-linecap="round" stroke-linejoin="round" stroke-miterlimit="10" stroke-width="2"><path d="M50 12.215c0 6.597-5.338 11.935-11.935 11.935S26.12 18.812 26.12 12.215c0-4.326 2.304-8.114 5.743-10.204v7.743l6.203 5.338 6.192-5.338V2A11.947 11.947 0 0 1 50 12.215z"></path><path d="M42.37 23.352V45.69a4.31 4.31 0 1 1-8.62 0V23.34"></path></g></svg>