<svg width="16" height="16" viewBox="0 0 16 16" fill="none" xmlns="http://www.w3.org/2000/svg">
  <path d="M9.66665 6.33333L9.41665 12.1667M6.58331 12.1667L6.33331 6.33333M2.99998 3L3.70885 13.633C3.77889 14.6836 4.65149 15.5 5.70442 15.5H10.2955C11.3485 15.5 12.2211 14.6836 12.2911 13.633L13 3M2.99998 3H5.49998M2.99998 3H1.33331M13 3H14.6666M13 3H10.5M10.5 3V2.5C10.5 1.39543 9.60455 0.5 8.49998 0.5H7.49998C6.39541 0.5 5.49998 1.39543 5.49998 2.5V3M10.5 3H5.49998" stroke="#F4261A" stroke-linecap="round" stroke-linejoin="round" stroke-width="2"/>
</svg>
